<?xml version="1.0" encoding="UTF-8" standalone="no"?>
<!-- Created with Inkscape (http://www.inkscape.org/) -->

<svg
   width="44mm"
   height="12mm"
   viewBox="0 0 44 12"
   version="1.1"
   id="svg1"
   inkscape:version="1.3.2 (091e20e, 2023-11-25, custom)"
   sodipodi:docname="ogf_logo_wordmark.svg"
   xmlns:inkscape="http://www.inkscape.org/namespaces/inkscape"
   xmlns:sodipodi="http://sodipodi.sourceforge.net/DTD/sodipodi-0.dtd"
   xmlns="http://www.w3.org/2000/svg"
   xmlns:svg="http://www.w3.org/2000/svg">
  <sodipodi:namedview
     id="namedview1"
     pagecolor="#ffffff"
     bordercolor="#000000"
     borderopacity="0.25"
     inkscape:showpageshadow="2"
     inkscape:pageopacity="0.0"
     inkscape:pagecheckerboard="0"
     inkscape:deskcolor="#d1d1d1"
     inkscape:document-units="mm"
     inkscape:zoom="10.74725"
     inkscape:cx="43.825164"
     inkscape:cy="28.379352"
     inkscape:window-width="1728"
     inkscape:window-height="992"
     inkscape:window-x="2392"
     inkscape:window-y="-8"
     inkscape:window-maximized="1"
     inkscape:current-layer="layer1" />
  <defs
     id="defs1" />
  <g
     inkscape:label="Layer 1"
     inkscape:groupmode="layer"
     id="layer1"
     transform="translate(-55.058601,-24.011898)">
    <path
       style="font-weight:bold;font-size:7.05556px;line-height:6.35px;font-family:Arial;-inkscape-font-specification:'Arial Bold';fill:#666666;stroke-width:2;stroke-linecap:square"
       d="m 55.354252,26.875856 q 0,-0.771702 0.230822,-1.295357 0.172255,-0.385851 0.468533,-0.692465 0.299723,-0.306613 0.654569,-0.454752 0.471978,-0.199816 1.08865,-0.199816 1.116212,0 1.784561,0.692465 0.671794,0.692464 0.671794,1.925809 0,1.22301 -0.664904,1.915474 -0.664904,0.68902 -1.77767,0.68902 -1.126547,0 -1.791451,-0.685574 -0.664904,-0.68902 -0.664904,-1.894804 z m 1.050755,-0.03445 q 0,0.857829 0.396186,1.302247 0.396186,0.440972 1.005969,0.440972 0.609782,0 0.999078,-0.437527 0.392741,-0.440973 0.392741,-1.319473 0,-0.868164 -0.382406,-1.295356 -0.37896,-0.427192 -1.009413,-0.427192 -0.630453,0 -1.016304,0.434082 -0.385851,0.430637 -0.385851,1.302247 z m 4.643991,2.528702 v -5.050514 h 1.636422 q 0.930176,0 1.212674,0.07579 0.434083,0.113689 0.726916,0.496095 0.292833,0.37896 0.292833,0.981852 0,0.465089 -0.16881,0.782038 -0.168809,0.316949 -0.430637,0.499539 -0.258382,0.179145 -0.5271,0.237712 -0.36518,0.07235 -1.057645,0.07235 h -0.664904 v 1.905139 z m 1.019749,-4.196129 v 1.43316 h 0.558106 q 0.602892,0 0.806153,-0.07924 0.203261,-0.07924 0.316949,-0.248047 0.117133,-0.16881 0.117133,-0.392741 0,-0.275608 -0.161919,-0.454753 -0.16192,-0.179145 -0.409967,-0.223931 -0.18259,-0.03445 -0.733806,-0.03445 z m 3.686255,4.196129 v -5.050514 h 3.744821 v 0.854384 h -2.725072 v 1.119656 h 2.535592 v 0.850939 h -2.535592 v 1.374594 h 2.821535 v 0.85094 z m 4.716339,0 v -5.050514 h 0.992188 l 2.067058,3.372751 v -3.372751 h 0.947402 v 5.050514 h -1.023194 l -2.036053,-3.293514 v 3.293514 z"
       id="text1"
       aria-label="OPEN" />
    <path
       style="font-weight:bold;font-size:7.05556px;line-height:6.35px;font-family:Arial;-inkscape-font-specification:'Arial Bold';fill:#ae3134;stroke-width:2;stroke-linecap:square"
       d="m 57.879509,33.794302 v -0.850939 h 2.197972 V 34.9553 q -0.320394,0.310059 -0.930176,0.547771 -0.606337,0.234266 -1.2299,0.234266 -0.792373,0 -1.381484,-0.330729 -0.589112,-0.334175 -0.88539,-0.950847 -0.296279,-0.620118 -0.296279,-1.347033 0,-0.788928 0.33073,-1.402155 0.330729,-0.613228 0.968072,-0.940512 0.485759,-0.251492 1.209229,-0.251492 0.940512,0 1.467612,0.396186 0.530545,0.392741 0.682129,1.088651 l -1.012858,0.189481 q -0.106798,-0.372071 -0.403077,-0.585667 -0.292833,-0.217041 -0.733806,-0.217041 -0.668349,0 -1.064535,0.423747 -0.392741,0.423747 -0.392741,1.25746 0,0.899171 0.399631,1.350479 0.399632,0.447862 1.04731,0.447862 0.320394,0 0.640788,-0.124023 0.323839,-0.127469 0.554661,-0.306614 v -0.640788 z m 3.138484,1.856908 v -5.050514 h 3.744821 v 0.854385 h -2.725072 v 1.119656 h 2.535591 v 0.85094 h -2.535591 v 1.374594 h 2.821535 v 0.850939 z m 4.499297,-2.494251 q 0,-0.771702 0.230822,-1.295357 0.172255,-0.385851 0.468533,-0.692464 0.299724,-0.306614 0.654569,-0.454753 0.471978,-0.199816 1.088651,-0.199816 1.116211,0 1.78456,0.692465 0.671794,0.692464 0.671794,1.925809 0,1.22301 -0.664904,1.915475 -0.664903,0.689019 -1.77767,0.689019 -1.126547,0 -1.791451,-0.685574 -0.664904,-0.68902 -0.664904,-1.894804 z m 1.050755,-0.03445 q 0,0.857829 0.396186,1.302247 0.396187,0.440972 1.005969,0.440972 0.609782,0 0.999078,-0.437527 0.392741,-0.440972 0.392741,-1.319472 0,-0.868165 -0.382405,-1.295357 -0.378961,-0.427192 -1.009414,-0.427192 -0.630453,0 -1.016304,0.434082 -0.385851,0.430637 -0.385851,1.302247 z m 4.650882,2.528702 v -5.050515 h 3.462324 v 0.854385 h -2.442575 v 1.195449 h 2.1084 v 0.854384 h -2.1084 v 2.146296 z m 4.271921,0 v -5.050514 h 1.019749 v 5.050514 z m 5.222768,-1.856908 0.988743,0.313504 q -0.227377,0.826823 -0.757922,1.2299 -0.5271,0.399631 -1.340143,0.399631 -1.005968,0 -1.653647,-0.685574 -0.647678,-0.68902 -0.647678,-1.881024 0,-1.260905 0.651123,-1.956815 0.651124,-0.699355 1.712214,-0.699355 0.926731,0 1.505508,0.547771 0.344509,0.323839 0.516764,0.930176 l -1.009413,0.241157 q -0.08957,-0.392741 -0.375516,-0.620118 -0.282498,-0.227376 -0.68902,-0.227376 -0.56155,0 -0.91295,0.403076 -0.347955,0.403077 -0.347955,1.305692 0,0.957737 0.344509,1.364259 0.34451,0.406521 0.895726,0.406521 0.406521,0 0.699355,-0.258382 0.292833,-0.258382 0.420302,-0.813043 z m 3.000681,1.856908 v -4.196129 h -1.498618 v -0.854385 h 4.013539 v 0.854385 h -1.495172 v 4.196129 z m 3.141928,0 v -5.050514 h 1.019749 v 5.050514 z m 1.784561,-2.494251 q 0,-0.771702 0.230821,-1.295357 0.172255,-0.385851 0.468533,-0.692464 0.299724,-0.306614 0.654569,-0.454753 0.471978,-0.199816 1.088651,-0.199816 1.116211,0 1.78456,0.692465 0.671794,0.692464 0.671794,1.925809 0,1.22301 -0.664903,1.915475 -0.664904,0.689019 -1.777671,0.689019 -1.126547,0 -1.791451,-0.685574 -0.664903,-0.68902 -0.664903,-1.894804 z m 1.050754,-0.03445 q 0,0.857829 0.396187,1.302247 0.396186,0.440972 1.005968,0.440972 0.609782,0 0.999078,-0.437527 0.392742,-0.440972 0.392742,-1.319472 0,-0.868165 -0.382406,-1.295357 -0.378961,-0.427192 -1.009414,-0.427192 -0.630453,0 -1.016304,0.434082 Q 89.69154,32.2509 89.69154,33.12251 Z m 4.654328,2.528702 v -5.050514 h 0.992188 l 2.067058,3.372751 v -3.372751 h 0.947402 v 5.050514 h -1.023194 l -2.036053,-3.293514 v 3.293514 z"
       id="text1-9"
       aria-label="GEOFICTION" />
  </g>
</svg>
