<?xml version="1.0" encoding="UTF-8" standalone="no"?>
<!-- Created with Inkscape (http://www.inkscape.org/) -->

<svg
   width="21.834475mm"
   height="8.0775747mm"
   viewBox="0 0 21.834475 8.0775747"
   version="1.1"
   id="svg1"
   inkscape:version="1.2.2 (b0a8486541, 2022-12-01)"
   sodipodi:docname="ogf_spyglass.svg"
   inkscape:export-filename="ogf_logo_wordmark.png"
   inkscape:export-xdpi="86.590912"
   inkscape:export-ydpi="86.590912"
   xml:space="preserve"
   xmlns:inkscape="http://www.inkscape.org/namespaces/inkscape"
   xmlns:sodipodi="http://sodipodi.sourceforge.net/DTD/sodipodi-0.dtd"
   xmlns="http://www.w3.org/2000/svg"
   xmlns:svg="http://www.w3.org/2000/svg"><sodipodi:namedview
     id="namedview1"
     pagecolor="#ffffff"
     bordercolor="#000000"
     borderopacity="0.25"
     inkscape:showpageshadow="2"
     inkscape:pageopacity="0.0"
     inkscape:pagecheckerboard="0"
     inkscape:deskcolor="#d1d1d1"
     inkscape:document-units="mm"
     inkscape:zoom="11.313709"
     inkscape:cx="45.829358"
     inkscape:cy="14.18633"
     inkscape:window-width="1854"
     inkscape:window-height="1131"
     inkscape:window-x="0"
     inkscape:window-y="0"
     inkscape:window-maximized="1"
     inkscape:current-layer="layer1"
     showgrid="false" /><defs
     id="defs1" /><g
     inkscape:label="Layer 1"
     inkscape:groupmode="layer"
     id="layer1"
     transform="translate(-66.238432,-11.493421)"><g
       aria-label="OpenGeofiction"
       transform="scale(0.94064907,1.0630957)"
       id="text358"
       style="font-size:2.98656px;stroke-width:0.24888"><path
         d="m 72.622966,12.026811 q 0,0.331508 -0.110503,0.579393 -0.107516,0.244898 -0.331508,0.38228 -0.223992,0.137381 -0.57342,0.137381 -0.346441,0 -0.573419,-0.137381 -0.223992,-0.137382 -0.334495,-0.385267 -0.107516,-0.247884 -0.107516,-0.579392 0,-0.331509 0.107516,-0.576406 0.110503,-0.244898 0.334495,-0.379294 0.226978,-0.137381 0.576406,-0.137381 0.346441,0 0.570433,0.137381 0.223992,0.134396 0.331508,0.38228 0.110503,0.244898 0.110503,0.576406 z m -1.555998,0 q 0,0.334495 0.128422,0.528621 0.128422,0.19114 0.412145,0.19114 0.289697,0 0.415132,-0.19114 0.125436,-0.194126 0.125436,-0.528621 0,-0.337481 -0.125436,-0.528621 -0.125435,-0.19114 -0.412145,-0.19114 -0.28671,0 -0.415132,0.19114 -0.128422,0.19114 -0.128422,0.528621 z"
         style="font-weight:bold;-inkscape-font-specification:'sans-serif Bold';fill:#666666;fill-opacity:1"
         id="path849" /><path
         d="m 73.937051,11.435472 q 0.274763,0 0.444997,0.215033 0.170234,0.212045 0.170234,0.627177 0,0.415132 -0.176207,0.633151 -0.176207,0.215032 -0.450971,0.215032 -0.176207,0 -0.280736,-0.06272 -0.10453,-0.0657 -0.170234,-0.146342 h -0.02389 q 0.02389,0.125436 0.02389,0.238925 v 0.657043 h -0.444998 v -2.347436 h 0.361374 l 0.06272,0.212046 h 0.02091 q 0.0657,-0.09856 0.176207,-0.170234 0.110503,-0.07168 0.28671,-0.07168 z m -0.143355,0.355401 q -0.173221,0 -0.244898,0.107516 -0.06869,0.107516 -0.07466,0.328522 v 0.04779 q 0,0.235938 0.06869,0.36436 0.07168,0.125436 0.256844,0.125436 0.152315,0 0.223992,-0.125436 0.07466,-0.128422 0.07466,-0.367347 0,-0.480836 -0.304629,-0.480836 z"
         style="font-weight:bold;-inkscape-font-specification:'sans-serif Bold';fill:#666666;fill-opacity:1"
         id="path851" /><path
         d="m 75.591603,11.435472 q 0.337482,0 0.534595,0.194127 0.197112,0.19114 0.197112,0.54654 v 0.215033 h -1.051269 q 0.006,0.188153 0.110503,0.295669 0.107516,0.107516 0.29567,0.107516 0.158287,0 0.286709,-0.02986 0.128422,-0.03285 0.265804,-0.09856 v 0.343454 q -0.119462,0.05973 -0.253857,0.08661 -0.131409,0.02986 -0.319562,0.02986 -0.244898,0 -0.433052,-0.0896 -0.188153,-0.09258 -0.295669,-0.277751 -0.107516,-0.185166 -0.107516,-0.465903 0,-0.28671 0.09557,-0.474863 0.09856,-0.19114 0.271777,-0.28671 0.17322,-0.09557 0.403185,-0.09557 z m 0.003,0.316576 q -0.128422,0 -0.215033,0.08362 -0.08362,0.08362 -0.09856,0.259831 h 0.624191 q -0.003,-0.149328 -0.07765,-0.244898 -0.07466,-0.09856 -0.232952,-0.09856 z"
         style="font-weight:bold;-inkscape-font-specification:'sans-serif Bold';fill:#666666;fill-opacity:1"
         id="path853" /><path
         d="m 77.610517,11.435472 q 0.262817,0 0.421105,0.143355 0.158288,0.140369 0.158288,0.453957 V 13.096 h -0.444998 v -0.952713 q 0,-0.176207 -0.06272,-0.262817 -0.06272,-0.0896 -0.200099,-0.0896 -0.203086,0 -0.27775,0.140368 -0.07466,0.137382 -0.07466,0.397213 V 13.096 h -0.444998 v -1.630662 h 0.340468 l 0.05973,0.209059 h 0.02389 q 0.07765,-0.125435 0.212046,-0.18218 0.137381,-0.05674 0.289696,-0.05674 z"
         style="font-weight:bold;-inkscape-font-specification:'sans-serif Bold';fill:#666666;fill-opacity:1"
         id="path855" /><path
         d="m 79.492049,11.898389 h 0.845196 v 1.105027 q -0.167247,0.05675 -0.349427,0.0896 -0.179194,0.03285 -0.409159,0.03285 -0.47785,0 -0.734694,-0.280736 -0.256844,-0.280737 -0.256844,-0.818318 0,-0.334495 0.128422,-0.579392 0.131409,-0.244898 0.379293,-0.379294 0.247885,-0.134395 0.606272,-0.134395 0.170234,0 0.334495,0.03584 0.16426,0.03584 0.298656,0.09557 l -0.149328,0.361374 q -0.09856,-0.05077 -0.223992,-0.08362 -0.125436,-0.03285 -0.262818,-0.03285 -0.197113,0 -0.343454,0.0896 -0.143355,0.0896 -0.223992,0.253857 -0.07765,0.161274 -0.07765,0.38228 0,0.209059 0.05675,0.370333 0.05675,0.161275 0.179193,0.253858 0.122449,0.0896 0.319562,0.0896 0.09557,0 0.161275,-0.009 0.06869,-0.009 0.125435,-0.02091 v -0.444997 h -0.403185 z"
         style="font-weight:bold;-inkscape-font-specification:'sans-serif Bold';fill:#ae3134;fill-opacity:1"
         id="path857" /><path
         d="m 81.481101,11.435472 q 0.337481,0 0.534594,0.194127 0.197113,0.19114 0.197113,0.54654 v 0.215033 h -1.051269 q 0.006,0.188153 0.110502,0.295669 0.107516,0.107516 0.29567,0.107516 0.158287,0 0.28671,-0.02986 0.128422,-0.03285 0.265803,-0.09856 v 0.343454 q -0.119462,0.05973 -0.253857,0.08661 -0.131409,0.02986 -0.319562,0.02986 -0.244898,0 -0.433051,-0.0896 -0.188154,-0.09258 -0.29567,-0.277751 -0.107516,-0.185166 -0.107516,-0.465903 0,-0.28671 0.09557,-0.474863 0.09856,-0.19114 0.271777,-0.28671 0.17322,-0.09557 0.403186,-0.09557 z m 0.003,0.316576 q -0.128422,0 -0.215032,0.08362 -0.08362,0.08362 -0.09856,0.259831 H 81.7947 q -0.003,-0.149328 -0.07765,-0.244898 -0.07466,-0.09856 -0.232952,-0.09856 z"
         style="font-weight:bold;-inkscape-font-specification:'sans-serif Bold';fill:#ae3134;fill-opacity:1"
         id="path859" /><path
         d="m 84.055514,12.277682 q 0,0.406172 -0.215032,0.627178 -0.212046,0.221005 -0.579393,0.221005 -0.226979,0 -0.406172,-0.09856 -0.176207,-0.09856 -0.27775,-0.28671 -0.101543,-0.19114 -0.101543,-0.462917 0,-0.406172 0.212045,-0.624191 0.212046,-0.218019 0.58238,-0.218019 0.229965,0 0.406172,0.09856 0.176207,0.09856 0.27775,0.28671 0.101543,0.185166 0.101543,0.456944 z m -1.125933,0 q 0,0.241912 0.07765,0.367347 0.08064,0.122449 0.259831,0.122449 0.176207,0 0.253858,-0.122449 0.08064,-0.125435 0.08064,-0.367347 0,-0.241911 -0.08064,-0.361374 -0.07765,-0.122448 -0.256844,-0.122448 -0.176207,0 -0.256845,0.122448 -0.07765,0.119463 -0.07765,0.361374 z"
         style="font-weight:bold;-inkscape-font-specification:'sans-serif Bold';fill:#ae3134;fill-opacity:1"
         id="path861" /><path
         d="M 85.3248,11.799833 H 84.939534 V 13.096 H 84.494536 V 11.799833 H 84.249638 V 11.5848 l 0.244898,-0.119462 v -0.119463 q 0,-0.209059 0.06869,-0.322548 0.07168,-0.116476 0.2001,-0.164261 0.131408,-0.04779 0.307615,-0.04779 0.131409,0 0.235939,0.02091 0.107516,0.02091 0.17322,0.04779 l -0.113489,0.325535 q -0.05077,-0.01493 -0.110503,-0.02688 -0.05973,-0.01493 -0.137382,-0.01493 -0.09258,0 -0.137381,0.05674 -0.04181,0.05674 -0.04181,0.143355 v 0.101543 H 85.3248 Z m 0.47785,-0.973619 q 0.09856,0 0.170233,0.04778 0.07168,0.0448 0.07168,0.170234 0,0.122449 -0.07168,0.170234 -0.07168,0.04778 -0.170233,0.04778 -0.101544,0 -0.173221,-0.04778 -0.06869,-0.04779 -0.06869,-0.170234 0,-0.125436 0.06869,-0.170234 0.07168,-0.04778 0.173221,-0.04778 z m 0.221005,0.639124 V 13.096 h -0.444997 v -1.630662 z"
         style="font-weight:bold;-inkscape-font-specification:'sans-serif Bold';fill:#ae3134;fill-opacity:1"
         id="path863" /><path
         d="m 87.152573,13.125865 q -0.36436,0 -0.56446,-0.200099 Q 86.391,12.72268 86.391,12.289628 q 0,-0.298656 0.101543,-0.486809 0.101543,-0.188153 0.280737,-0.27775 0.18218,-0.0896 0.418118,-0.0896 0.167248,0 0.289697,0.03285 0.125435,0.03285 0.218019,0.07765 l -0.131409,0.343454 q -0.10453,-0.04181 -0.197113,-0.06869 -0.0896,-0.02688 -0.179194,-0.02688 -0.346441,0 -0.346441,0.492782 0,0.244898 0.0896,0.361374 0.09258,0.116476 0.256844,0.116476 0.140369,0 0.247885,-0.03584 0.107516,-0.03882 0.209059,-0.10453 v 0.379293 q -0.101543,0.06571 -0.215032,0.09258 -0.110503,0.02986 -0.280737,0.02986 z"
         style="font-weight:bold;-inkscape-font-specification:'sans-serif Bold';fill:#ae3134;fill-opacity:1"
         id="path865" /><path
         d="m 88.711557,12.770465 q 0.07466,0 0.143355,-0.01493 0.06869,-0.01493 0.137382,-0.03584 v 0.331508 q -0.07168,0.02987 -0.179194,0.05077 -0.104529,0.02389 -0.229965,0.02389 -0.146341,0 -0.262817,-0.04778 -0.11349,-0.04778 -0.18218,-0.16426 -0.0657,-0.119463 -0.0657,-0.328522 V 11.799836 H 87.860392 V 11.611682 L 88.10529,11.462354 88.233712,11.1189 h 0.283724 v 0.346441 h 0.456943 v 0.334495 h -0.456943 v 0.785465 q 0,0.09258 0.05376,0.140368 0.05376,0.0448 0.140368,0.0448 z"
         style="font-weight:bold;-inkscape-font-specification:'sans-serif Bold';fill:#ae3134;fill-opacity:1"
         id="path867" /><path
         d="m 89.544808,10.826214 q 0.09856,0 0.170234,0.04778 0.07168,0.0448 0.07168,0.170234 0,0.122449 -0.07168,0.170234 -0.07168,0.04778 -0.170234,0.04778 -0.101543,0 -0.173221,-0.04778 -0.06869,-0.04779 -0.06869,-0.170234 0,-0.125436 0.06869,-0.170234 0.07168,-0.04778 0.173221,-0.04778 z m 0.221005,0.639124 V 13.096 h -0.444997 v -1.630662 z"
         style="font-weight:bold;-inkscape-font-specification:'sans-serif Bold';fill:#ae3134;fill-opacity:1"
         id="path869" /><path
         d="m 91.713051,12.277682 q 0,0.406172 -0.215032,0.627178 -0.212046,0.221005 -0.579393,0.221005 -0.226978,0 -0.406172,-0.09856 -0.176207,-0.09856 -0.27775,-0.28671 -0.101543,-0.19114 -0.101543,-0.462917 0,-0.406172 0.212046,-0.624191 0.212046,-0.218019 0.582379,-0.218019 0.229965,0 0.406172,0.09856 0.176207,0.09856 0.27775,0.28671 0.101543,0.185166 0.101543,0.456944 z m -1.125933,0 q 0,0.241912 0.07765,0.367347 0.08064,0.122449 0.259831,0.122449 0.176207,0 0.253857,-0.122449 0.08064,-0.125435 0.08064,-0.367347 0,-0.241911 -0.08064,-0.361374 -0.07765,-0.122448 -0.256844,-0.122448 -0.176207,0 -0.256844,0.122448 -0.07765,0.119463 -0.07765,0.361374 z"
         style="font-weight:bold;-inkscape-font-specification:'sans-serif Bold';fill:#ae3134;fill-opacity:1"
         id="path871" /><path
         d="m 93.00623,11.435472 q 0.262817,0 0.421105,0.143355 0.158288,0.140369 0.158288,0.453957 V 13.096 h -0.444998 v -0.952713 q 0,-0.176207 -0.06272,-0.262817 -0.06272,-0.0896 -0.200099,-0.0896 -0.203086,0 -0.27775,0.140368 -0.07466,0.137382 -0.07466,0.397213 V 13.096 h -0.444998 v -1.630662 h 0.340468 l 0.05973,0.209059 h 0.02389 q 0.07765,-0.125435 0.212046,-0.18218 0.137381,-0.05674 0.289696,-0.05674 z"
         style="font-weight:bold;-inkscape-font-specification:'sans-serif Bold';fill:#ae3134;fill-opacity:1"
         id="path873" /></g><path
       id="back"
       d="m 74.182282,14.808496 h 13.890624 v 4.7625 H 74.182282 Z"
       style="stroke-width:0.264583" /><path
       id="back-3"
       d="m 66.23811,14.808631 h 7.944843 v 4.7625 H 66.23811 Z"
       style="fill:#ffffff;fill-opacity:1;stroke:none;stroke-width:0.200098;stroke-opacity:1" /><g
       aria-label="SPY"
       id="spy"
       style="font-weight:bold;font-size:17px;font-family:Sarabun"
       transform="matrix(0.26458333,0,0,0.26458333,65.31874,10.045996)"><path
         d="m 7.658,33.17 q -1.343,0 -2.431,-0.544 -1.071,-0.544 -1.751,-1.564 l 1.411,-1.36 q 0.561,0.663 1.36,1.088 0.799,0.425 1.496,0.425 0.782,0 1.258,-0.357 0.476,-0.357 0.476,-0.935 0,-0.425 -0.153,-0.697 Q 9.171,28.954 8.746,28.682 8.321,28.393 7.352,27.917 6.077,27.288 5.346,26.744 4.615,26.2 4.258,25.571 q -0.34,-0.646 -0.34,-1.496 0,-0.935 0.493,-1.649 0.493,-0.714 1.394,-1.105 0.901,-0.391 2.074,-0.391 1.292,0 2.278,0.493 1.003,0.493 1.462,1.36 l -1.547,1.156 q -0.85,-1.054 -2.091,-1.054 -0.782,0 -1.207,0.306 -0.425,0.306 -0.425,0.867 0,0.34 0.204,0.612 0.221,0.272 0.782,0.595 0.561,0.323 1.683,0.85 1.088,0.51 1.7,1.02 0.629,0.51 0.901,1.139 0.272,0.629 0.272,1.496 0,1.02 -0.527,1.802 -0.51,0.765 -1.479,1.19 -0.952,0.408 -2.227,0.408 z"
         id="path206" /><path
         d="m 13.52301,21.1 h 3.961 q 2.108,0 3.196,0.969 1.088,0.952 1.088,2.822 0,1.972 -1.122,3.009 -1.105,1.02 -3.247,1.02 h -1.428 V 33 h -2.448 z m 4.08,5.882 q 0.884,0 1.326,-0.51 0.459,-0.527 0.459,-1.513 0,-0.935 -0.493,-1.411 -0.476,-0.493 -1.428,-0.493 h -1.496 v 3.927 z"
         id="path208" /><path
         d="m 26.001001,28.24 -3.859,-7.14 h 2.652 l 2.431,4.93 2.431,-4.93 h 2.652 l -3.859,7.14 V 33 h -2.448 z"
         id="path210" /></g><g
       aria-label="GLASS"
       id="glass"
       style="font-weight:bold;font-size:17px;font-family:Sarabun;fill:#ffffff"
       transform="matrix(0.26458333,0,0,0.26458333,65.31874,10.045996)"><path
         d="M 45.268,26.54 V 33 h -1.853 l -0.221,-0.663 q -1.156,0.833 -2.686,0.833 -2.363,0 -3.672,-1.615 -1.309,-1.615 -1.309,-4.505 0,-1.853 0.68,-3.23 0.68,-1.394 1.921,-2.142 1.241,-0.748 2.907,-0.748 1.445,0 2.516,0.561 1.088,0.544 1.581,1.53 l -1.394,1.224 q -0.425,-0.663 -1.122,-1.003 -0.68,-0.357 -1.564,-0.357 -1.496,0 -2.295,1.071 -0.782,1.071 -0.782,3.094 0,2.125 0.731,3.23 0.731,1.088 2.125,1.088 1.122,0 2.023,-0.544 v -2.55 H 40.27 V 26.54 Z"
         id="path213" /><path
         d="m 47.256998,21.1 h 2.448 v 9.945 h 5.61 V 33 h -8.058 z"
         id="path215" /><path
         d="m 63.203007,31.028 h -4.097 l -0.595,1.972 h -2.55 l 4.114,-11.9 h 2.159 l 4.114,11.9 h -2.55 z m -0.595,-1.955 -1.445,-4.76 -1.462,4.76 z"
         id="path217" /><path
         d="m 70.581004,33.17 q -1.343,0 -2.431,-0.544 -1.071,-0.544 -1.751,-1.564 l 1.411,-1.36 q 0.561,0.663 1.36,1.088 0.799,0.425 1.496,0.425 0.782,0 1.258,-0.357 0.476,-0.357 0.476,-0.935 0,-0.425 -0.153,-0.697 -0.153,-0.272 -0.578,-0.544 -0.425,-0.289 -1.394,-0.765 -1.275,-0.629 -2.006,-1.173 -0.731,-0.544 -1.088,-1.173 -0.34,-0.646 -0.34,-1.496 0,-0.935 0.493,-1.649 0.493,-0.714 1.394,-1.105 0.901,-0.391 2.074,-0.391 1.292,0 2.278,0.493 1.003,0.493 1.462,1.36 l -1.547,1.156 q -0.85,-1.054 -2.091,-1.054 -0.782,0 -1.207,0.306 -0.425,0.306 -0.425,0.867 0,0.34 0.204,0.612 0.221,0.272 0.782,0.595 0.561,0.323 1.683,0.85 1.088,0.51 1.7,1.02 0.629,0.51 0.901,1.139 0.272,0.629 0.272,1.496 0,1.02 -0.527,1.802 -0.51,0.765 -1.479,1.19 -0.952,0.408 -2.227,0.408 z"
         id="path219" /><path
         d="m 79.948016,33.17 q -1.343,0 -2.431,-0.544 -1.071,-0.544 -1.751,-1.564 l 1.411,-1.36 q 0.561,0.663 1.36,1.088 0.799,0.425 1.496,0.425 0.782,0 1.258,-0.357 0.476,-0.357 0.476,-0.935 0,-0.425 -0.153,-0.697 -0.153,-0.272 -0.578,-0.544 -0.425,-0.289 -1.394,-0.765 -1.275,-0.629 -2.006,-1.173 -0.731,-0.544 -1.088,-1.173 -0.34,-0.646 -0.34,-1.496 0,-0.935 0.493,-1.649 0.493,-0.714 1.394,-1.105 0.901,-0.391 2.074,-0.391 1.292,0 2.278,0.493 1.003,0.493 1.462,1.36 l -1.547,1.156 q -0.85,-1.054 -2.091,-1.054 -0.782,0 -1.207,0.306 -0.425,0.306 -0.425,0.867 0,0.34 0.204,0.612 0.221,0.272 0.782,0.595 0.561,0.323 1.683,0.85 1.088,0.51 1.7,1.02 0.629,0.51 0.901,1.139 0.272,0.629 0.272,1.496 0,1.02 -0.527,1.802 -0.51,0.765 -1.479,1.19 -0.952,0.408 -2.227,0.408 z"
         id="path221" /></g></g></svg>
